<?xml version="1.0" standalone="no"?>
<!DOCTYPE svg PUBLIC "-//W3C//DTD SVG 20010904//EN"
 "http://www.w3.org/TR/2001/REC-SVG-20010904/DTD/svg10.dtd">
<svg version="1.0" xmlns="http://www.w3.org/2000/svg"
 width="632.000000pt" height="395.000000pt" viewBox="0 0 632.000000 395.000000"
 preserveAspectRatio="xMidYMid meet">

<g transform="translate(0.000000,395.000000) scale(0.100000,-0.100000)"
fill="#000000" stroke="none">
<path d="M2268 3892 c-71 -148 -100 -270 -79 -335 7 -19 29 -54 51 -78 22 -24
40 -48 40 -52 0 -12 -54 1 -126 29 -33 13 -72 24 -85 24 -14 0 -34 7 -45 15
-28 21 -66 20 -62 -2 3 -19 2 -19 -72 -7 -28 5 -39 1 -54 -15 -11 -12 -31 -21
-46 -21 -15 0 -45 -6 -66 -14 -35 -12 -48 -11 -109 5 -86 22 -125 23 -150 5
-28 -20 -6 -42 48 -49 23 -2 56 -10 72 -17 l30 -12 -25 -10 c-14 -5 -71 -10
-127 -11 -92 -2 -104 -4 -127 -26 -18 -17 -26 -35 -26 -57 0 -19 -6 -34 -15
-38 -23 -9 -65 15 -71 41 -4 12 -9 21 -14 18 -12 -7 -47 37 -60 78 -6 21 -10
60 -8 87 1 27 0 50 -4 50 -5 0 -12 0 -17 0 -16 0 -41 -68 -41 -114 0 -25 7
-64 16 -86 9 -23 14 -43 12 -45 -3 -3 -30 13 -61 35 -49 35 -62 40 -91 34 -41
-7 -105 12 -221 67 -44 20 -105 47 -135 59 -30 12 -58 27 -62 33 -6 9 -11 8
-18 -3 -7 -12 -25 1 -89 67 -120 122 -230 196 -309 206 -37 5 -44 2 -53 -16
-5 -12 -21 -37 -34 -56 -19 -26 -25 -45 -24 -85 1 -67 11 -100 31 -104 14 -3
15 5 11 56 -5 58 -5 59 33 90 55 46 74 42 103 -21 17 -36 56 -83 130 -154 57
-57 100 -103 95 -103 -21 0 -111 64 -151 107 -23 25 -46 42 -51 39 -6 -3 -9
-44 -8 -90 2 -83 2 -86 42 -133 23 -26 47 -58 55 -70 9 -15 20 -21 31 -17 29
9 42 -6 23 -26 -11 -12 -14 -26 -10 -43 6 -21 27 -36 101 -73 51 -25 98 -52
105 -60 6 -8 18 -14 25 -14 8 0 14 -7 14 -15 0 -27 -53 -17 -116 21 -61 38
-138 67 -148 57 -3 -4 -6 -15 -6 -25 0 -18 -2 -17 -41 2 -45 23 -61 20 -37 -7
8 -10 18 -26 21 -35 3 -9 49 -49 101 -88 60 -46 100 -83 108 -103 7 -16 22
-47 33 -68 107 -202 93 -185 207 -249 42 -23 93 -60 113 -80 l37 -37 -26 -26
c-34 -35 -34 -57 1 -57 l28 0 -36 -30 c-61 -50 -85 -125 -57 -185 7 -16 19
-25 34 -25 17 0 36 -16 65 -55 23 -30 46 -55 51 -55 5 0 8 3 6 8 -41 79 -51
112 -50 162 2 63 20 85 79 96 69 13 153 -36 153 -89 0 -17 57 -65 105 -90 17
-8 50 -30 74 -47 37 -27 41 -34 29 -46 -18 -18 -211 -84 -247 -84 -41 0 -69
-24 -55 -47 18 -29 59 -39 107 -25 92 27 212 43 261 36 67 -8 126 -39 126 -63
0 -20 12 -24 105 -37 58 -8 80 -17 115 -50 21 -19 35 -23 85 -22 36 1 87 -7
125 -19 l65 -20 26 -64 c37 -91 171 -296 229 -351 27 -25 56 -60 65 -77 8 -17
18 -31 20 -31 3 0 -6 23 -21 51 -24 49 -26 68 -6 55 5 -3 37 -45 71 -93 33
-49 84 -117 112 -153 28 -36 62 -90 76 -120 14 -30 49 -106 79 -168 30 -63 54
-116 54 -118 0 -11 103 -180 123 -202 11 -12 26 -22 33 -22 7 0 28 -13 46 -29
18 -15 47 -35 64 -44 18 -9 44 -31 59 -49 23 -27 26 -39 22 -73 -3 -22 -8 -48
-12 -58 -4 -9 -3 -17 1 -17 12 0 44 100 44 138 0 24 -13 45 -55 90 -30 33 -55
64 -55 68 0 5 31 8 70 6 l69 -4 27 -56 c21 -45 28 -78 33 -156 8 -135 27 -140
35 -9 11 183 17 205 54 227 26 14 36 16 42 7 4 -8 25 -12 55 -10 30 2 50 -1
52 -8 2 -6 -9 -35 -25 -65 -17 -29 -35 -76 -42 -105 -10 -46 -9 -56 9 -97 19
-44 34 -56 45 -37 3 5 -1 25 -9 45 -18 41 -19 89 -4 117 13 25 81 88 95 89 6
0 25 18 43 40 17 22 37 40 44 40 14 0 87 166 87 196 0 11 14 42 30 68 17 26
46 77 64 114 36 70 60 97 138 152 26 18 59 51 73 72 15 22 29 38 31 35 7 -7
-31 -116 -45 -130 -6 -6 -11 -17 -11 -25 0 -42 107 107 139 193 29 79 141 256
203 322 27 29 58 73 69 98 11 25 45 74 76 108 30 34 62 72 71 85 11 17 21 22
38 18 17 -5 34 5 73 44 28 28 79 64 112 80 75 36 89 47 89 72 0 33 28 75 57
85 15 6 69 18 118 27 50 9 111 27 138 41 35 18 65 25 116 26 38 1 75 5 82 10
8 5 -11 7 -44 6 -39 -1 -60 2 -66 11 -6 9 -31 13 -90 11 -89 -2 -104 4 -95 39
5 15 14 22 30 22 14 0 39 6 57 13 31 13 32 16 32 72 0 55 -2 60 -25 65 -20 5
-25 12 -25 35 0 26 7 33 45 52 25 13 85 31 133 42 80 17 92 22 125 59 20 22
54 48 76 56 21 9 53 28 71 43 18 16 45 36 60 46 42 30 22 31 -34 3 -67 -34
-94 -35 -85 -1 5 19 2 25 -10 25 -23 0 -20 33 7 57 12 12 55 37 95 57 66 33
95 66 57 66 -21 0 -19 20 8 60 13 19 32 51 41 71 30 64 76 105 138 123 78 22
128 22 128 -2 0 -11 -9 -27 -20 -37 -11 -10 -20 -22 -20 -27 0 -17 38 -7 64
17 35 33 31 62 -12 85 -18 10 -33 22 -32 27 0 4 21 13 47 18 94 20 47 52 -90
62 -43 3 -80 10 -83 14 -3 5 13 44 36 87 34 66 51 86 111 132 39 30 83 69 97
88 14 18 43 41 64 49 40 16 82 59 72 74 -3 5 -21 9 -40 9 -30 0 -37 4 -49 35
-17 39 -33 50 -91 59 -31 4 -45 2 -55 -10 -9 -11 -22 -14 -43 -10 -36 7 -45 2
-69 -37 -12 -18 -24 -26 -33 -23 -8 3 -33 -2 -55 -11 -35 -13 -48 -14 -92 -3
-67 15 -99 11 -113 -17 -7 -16 -14 -19 -21 -12 -16 16 -51 1 -65 -28 -17 -35
-40 -47 -71 -39 -33 8 -36 38 -7 81 20 30 27 71 11 61 -5 -3 -26 -32 -47 -63
-21 -32 -71 -93 -113 -135 -66 -70 -78 -78 -111 -78 -21 0 -57 7 -80 15 -50
18 -58 15 -31 -9 16 -15 18 -22 9 -49 -16 -49 -31 -59 -101 -64 -53 -5 -83 0
-172 27 -72 21 -119 30 -139 26 -17 -4 -65 3 -115 15 -98 25 -142 22 -232 -16
-60 -26 -122 -28 -159 -5 -17 11 -6 65 25 125 14 25 32 81 41 123 27 135 92
276 141 305 25 15 13 27 -30 27 -24 0 -48 -5 -54 -11 -6 -6 -26 -12 -44 -13
-31 -1 -35 -5 -46 -47 -12 -42 -47 -89 -58 -78 -2 3 2 25 9 49 7 25 16 57 20
73 l6 27 -80 0 c-74 0 -80 -2 -80 -20 0 -54 -62 -139 -118 -161 -13 -5 -58 -5
-107 0 -75 7 -92 13 -147 49 -35 23 -83 62 -108 87 l-44 45 -566 -1 -565 0
-27 -57z m322 -71 c0 -6 -23 -29 -51 -53 -44 -37 -99 -110 -99 -132 0 -3 11
-11 25 -16 14 -5 28 -18 32 -27 4 -10 11 -21 16 -24 13 -9 -79 -43 -93 -34
-18 11 -1 133 25 185 25 49 44 69 90 93 34 18 55 21 55 8z m385 -185 c19 -8
98 -77 175 -153 l141 -137 -3 -66 -3 -65 -40 -19 c-25 -12 -64 -19 -101 -20
-74 -1 -104 19 -104 69 0 35 13 45 57 45 41 0 20 25 -24 28 -33 2 -44 -1 -57
-20 -24 -33 -21 -105 6 -144 35 -51 73 -67 163 -72 68 -4 89 -1 132 18 50 21
98 60 75 60 -19 0 -14 19 15 58 44 60 46 61 116 45 83 -20 190 -6 336 44 86
29 113 35 123 25 19 -19 21 -121 4 -188 -28 -108 -17 -153 18 -71 50 115 57
127 74 127 13 0 23 -15 35 -53 9 -30 17 -64 17 -76 0 -27 21 -68 76 -149 59
-87 68 -151 28 -219 -76 -131 -134 -260 -134 -297 0 -37 1 -38 30 -34 30 4 38
-6 22 -28 -4 -6 -32 -27 -63 -47 -32 -21 -62 -50 -68 -65 -7 -16 -44 -60 -83
-98 -74 -72 -74 -65 1 31 74 94 35 75 -73 -35 -231 -238 -322 -321 -360 -330
-21 -4 -38 -4 -42 1 -3 5 -18 0 -34 -11 -37 -26 -40 -26 -40 13 l0 32 -26 -32
c-33 -43 -54 -43 -54 0 l-1 32 -15 -27 c-17 -32 -26 -34 -44 -13 -9 11 -11 37
-6 93 6 71 5 75 -9 54 -9 -12 -20 -46 -25 -74 -10 -63 -19 -88 -31 -88 -18 0
-88 50 -99 70 -13 24 -16 76 -6 107 9 27 -11 68 -53 107 -36 34 -39 29 -12
-23 10 -20 26 -70 36 -111 10 -41 24 -87 31 -102 27 -53 -5 -38 -42 19 -20 32
-48 72 -63 88 -16 17 -48 59 -72 95 -24 36 -71 94 -104 130 -33 36 -68 76 -77
90 -13 19 -17 21 -17 8 -1 -9 -6 -18 -12 -20 -27 -9 16 -64 240 -307 98 -106
115 -133 107 -167 -8 -29 -25 -30 -98 -5 -101 35 -212 128 -262 221 -33 61
-66 99 -119 138 -94 69 -101 67 -31 -8 25 -27 44 -54 42 -59 -6 -18 -66 20
-105 66 -60 70 -116 126 -159 156 -59 42 -246 251 -228 255 18 4 18 1 -6 62
-26 65 -25 68 5 40 28 -27 32 -13 9 31 -15 30 -15 31 6 24 20 -6 21 -4 15 32
l-6 38 31 -35 c17 -19 47 -66 66 -105 46 -92 129 -198 189 -245 18 -14 18 -14
5 6 -13 18 -67 82 -134 158 -10 11 -35 55 -55 96 -20 41 -53 102 -73 135 -49
81 -52 100 -13 99 17 -1 39 -5 50 -8 33 -11 48 24 28 64 -19 39 -13 162 11
225 14 39 15 39 15 11 1 -43 15 -22 40 62 13 43 27 72 35 72 7 0 31 30 52 66
21 36 47 70 59 76 11 6 29 18 40 28 11 10 34 26 50 36 30 19 29 18 -7 -25 -76
-90 -87 -189 -28 -246 47 -45 54 -29 46 103 l-6 115 45 44 c25 23 49 43 53 43
5 0 6 -15 4 -32 -4 -33 -4 -32 64 34 37 37 79 71 93 76 15 5 46 16 71 25 58
20 102 21 145 3z m-395 -50 c0 -15 -37 -32 -48 -22 -6 6 27 35 41 36 4 0 7 -6
7 -14z m3270 -105 c0 -13 -72 -71 -87 -71 -23 0 -14 28 18 54 30 26 69 35 69
17z m-5066 -180 c75 -35 113 -61 88 -61 -16 0 -146 62 -171 81 -37 30 -8 22
83 -20z m-141 -173 c22 -11 13 -28 -16 -28 -22 0 -87 34 -87 46 0 8 80 -6 103
-18z m1534 -250 c-3 -7 -5 -2 -5 12 0 14 2 19 5 13 2 -7 2 -19 0 -25z m-157
-548 c23 -12 59 -20 87 -20 69 0 129 -35 175 -101 21 -30 38 -62 38 -71 1 -48
-110 -76 -183 -47 -37 14 -77 47 -77 63 0 20 -57 131 -79 153 -42 44 -23 55
39 23z m2294 -32 c-4 -13 -21 -39 -38 -59 -26 -32 -32 -35 -42 -21 -10 13 -13
13 -31 -5 -14 -14 -29 -18 -56 -15 -20 2 -37 9 -37 14 0 13 56 66 95 89 17 11
49 19 73 19 40 0 43 -2 36 -22z m-2236 -243 c-3 -4 -16 9 -28 27 l-23 33 28
-27 c16 -15 26 -30 23 -33z m17 -52 c11 -7 30 -13 42 -13 13 0 40 -16 61 -35
l37 -35 -60 21 c-33 12 -69 25 -80 31 -27 14 -75 59 -75 71 0 8 20 -2 75 -40z
m-4 -80 c13 -16 12 -17 -3 -4 -10 7 -18 15 -18 17 0 8 8 3 21 -13z m2045 -9
c-30 -21 -44 -16 -17 7 13 11 27 17 30 13 3 -3 -3 -12 -13 -20z m-1536 -14 c0
-5 -5 -10 -11 -10 -5 0 -7 5 -4 10 3 6 8 10 11 10 2 0 4 -4 4 -10z m1140 0 c0
-5 -4 -10 -10 -10 -5 0 -10 5 -10 10 0 6 5 10 10 10 6 0 10 -4 10 -10z m590
-5 c0 -3 -9 -24 -20 -45 -11 -22 -22 -59 -24 -82 -3 -24 -9 -55 -15 -70 -11
-31 4 -39 27 -16 9 9 12 9 12 0 0 -20 24 -13 63 19 l37 30 -41 -88 c-69 -149
-73 -157 -106 -178 -18 -11 -32 -26 -33 -32 0 -7 -4 -13 -9 -13 -5 0 -11 -10
-13 -21 -4 -31 -99 -79 -153 -79 -27 0 -47 -6 -56 -16 -11 -14 -28 -15 -118
-9 -98 7 -167 23 -236 57 -16 8 -61 30 -100 49 -38 19 -87 44 -109 57 -58 35
-123 53 -206 57 -113 6 -182 -9 -289 -61 -60 -29 -122 -50 -166 -58 -50 -8
-70 -16 -70 -26 0 -8 -10 -16 -22 -18 -13 -2 -23 1 -23 7 0 7 -47 11 -138 11
-205 0 -288 33 -379 150 -24 30 -56 72 -73 94 -39 49 -39 68 0 31 33 -32 42
-16 14 23 -21 30 -15 35 25 21 40 -14 53 -4 17 12 -30 14 -34 29 -7 29 10 0
24 7 31 15 7 8 19 15 26 15 8 0 14 5 14 10 0 6 -7 10 -15 10 -16 0 -38 34 -28
44 12 12 48 5 103 -19 42 -18 54 -28 52 -42 -2 -12 7 -24 23 -33 14 -7 25 -17
25 -22 0 -10 68 -53 100 -62 40 -12 163 -57 187 -68 18 -9 35 -6 80 10 56 20
57 20 33 2 -14 -11 -56 -29 -95 -41 -99 -29 -105 -32 -72 -37 52 -7 183 50
299 129 15 11 31 19 36 19 11 0 70 -65 88 -96 23 -38 25 -4 3 35 -12 23 -20
44 -16 47 3 4 27 -12 53 -35 26 -23 49 -39 52 -36 4 4 -1 13 -44 73 -15 20
-15 22 0 22 9 0 27 -11 40 -25 26 -28 41 -33 32 -10 -3 8 1 18 8 22 7 5 18 18
24 29 17 33 57 36 84 7 14 -15 30 -22 41 -19 27 7 32 -20 12 -65 -25 -55 -15
-56 25 -2 39 53 77 76 46 29 -19 -30 -17 -46 4 -21 17 21 30 19 30 -5 0 -10 9
-24 19 -30 28 -15 33 -13 26 10 -12 38 37 18 137 -56 92 -67 92 -52 0 34 -45
42 -82 83 -82 90 0 6 2 12 4 12 12 0 104 -45 121 -60 26 -22 53 -31 60 -21 7
12 46 1 63 -16 17 -17 40 -17 58 1 12 12 7 15 -36 21 -74 10 -71 25 4 26 36 1
69 2 74 3 45 10 65 23 101 66 23 27 50 50 60 50 9 0 35 18 56 41 l40 41 72 -5
72 -5 33 44 c30 39 48 54 48 39z m-2187 -32 c-7 -2 -19 -2 -25 0 -7 3 -2 5 12
5 14 0 19 -2 13 -5z m2446 -27 l23 -25 -21 -29 c-25 -36 -127 -106 -141 -97
-17 11 -11 47 16 94 51 89 81 102 123 57z m-2528 -103 l24 -27 -24 15 c-14 9
-27 21 -29 27 -6 19 3 14 29 -15z m1131 -367 c17 -24 17 -25 -9 -55 -30 -34
-72 -41 -93 -16 -7 8 -19 15 -26 15 -21 0 -17 11 18 47 40 41 84 44 110 9z
m-377 -93 c0 -82 24 -163 65 -224 50 -75 37 -78 -64 -15 -39 24 -76 45 -82 47
-11 4 -75 44 -151 94 -25 17 -46 35 -46 40 -1 16 101 62 175 80 51 13 101 35
103 45 0 0 0 -30 0 -67z m920 -13 c132 -64 194 -75 250 -41 48 28 64 27 35 -4
-16 -17 -63 -38 -144 -64 -67 -22 -157 -53 -201 -69 -117 -43 -133 -45 -137
-25 -2 10 9 52 25 93 21 53 28 85 24 112 -5 37 -4 38 21 31 25 -6 26 -5 12 12
-8 10 -10 16 -5 14 6 -3 60 -29 120 -59z m-1019 -388 c-6 -5 -36 54 -36 70 1
7 10 -5 20 -26 11 -22 18 -41 16 -44z m1004 41 c0 -20 -3 -24 -11 -16 -7 7 -9
19 -6 27 10 24 17 19 17 -11z m-912 -20 c12 -11 10 -16 -10 -32 -15 -13 -27
-16 -34 -10 -13 11 -25 60 -17 71 5 9 40 -8 61 -29z m67 -45 c20 -9 25 -17 21
-32 -3 -12 -6 -30 -6 -41 -1 -18 -3 -17 -25 8 -14 15 -25 39 -25 53 0 28 0 28
35 12z m725 -26 c0 -16 -7 -37 -15 -48 -15 -19 -15 -19 -30 0 -8 11 -15 29
-15 40 1 21 1 21 15 2 15 -19 15 -19 15 1 0 18 7 26 28 32 1 1 2 -12 2 -27z
m-100 -101 l0 -46 -25 27 c-29 31 -28 28 -15 63 16 42 40 15 40 -44z m-515 49
c7 -12 -12 -50 -25 -50 -11 0 -14 43 -3 53 9 10 21 9 28 -3z m395 -52 c0 -23
-3 -29 -9 -19 -8 12 -4 51 5 51 2 0 4 -15 4 -32z m-127 -26 c16 -28 17 -34 3
-59 l-14 -28 -10 25 c-5 14 -12 42 -15 63 -7 46 9 46 36 -1z m-138 9 c8 -14
-6 -91 -16 -91 -5 0 -9 23 -9 50 0 46 11 63 25 41z m-179 -277 c18 -14 18 -14
-6 -3 -31 14 -36 19 -24 19 6 0 19 -7 30 -16z m552 -19 c-30 -28 -46 -35 -75
-34 l-38 1 49 13 c27 8 58 23 70 34 11 12 23 21 26 21 3 0 -12 -16 -32 -35z"/>
<path d="M2400 3261 c0 -6 4 -13 10 -16 6 -3 7 1 4 9 -7 18 -14 21 -14 7z"/>
<path d="M3950 3010 c0 -5 5 -10 10 -10 6 0 10 5 10 10 0 6 -4 10 -10 10 -5 0
-10 -4 -10 -10z"/>
<path d="M3937 2953 c-4 -3 -7 -13 -7 -22 1 -13 3 -13 11 2 11 19 8 33 -4 20z"/>
<path d="M2220 2841 c0 -6 4 -13 10 -16 6 -3 7 1 4 9 -7 18 -14 21 -14 7z"/>
<path d="M3831 2651 c-11 -27 -21 -54 -21 -59 0 -15 -30 -71 -98 -182 -36 -58
-72 -117 -81 -132 -9 -14 -31 -45 -49 -67 -19 -23 -30 -41 -24 -41 11 0 72 66
66 72 -2 3 14 11 37 18 49 17 74 47 94 113 8 28 29 75 46 105 28 49 68 206 56
218 -2 3 -14 -18 -26 -45z"/>
<path d="M3386 2039 c-23 -58 -28 -79 -17 -79 11 0 44 100 36 108 -3 3 -11
-10 -19 -29z"/>
<path d="M3406 1874 c-5 -14 -4 -15 9 -4 17 14 19 20 6 20 -5 0 -12 -7 -15
-16z"/>
<path d="M2415 893 c25 -71 220 -468 268 -548 92 -153 148 -238 187 -283 22
-25 40 -49 40 -53 0 -5 21 -9 48 -9 l47 1 -96 92 c-157 150 -235 277 -455 745
-45 94 -64 121 -39 55z"/>
<path d="M3885 762 c-14 -10 -125 -236 -125 -254 0 -8 -5 -19 -12 -26 -7 -7
-9 -12 -5 -12 10 0 93 133 133 212 32 63 36 99 9 80z"/>
<path d="M3711 419 c-13 -17 -24 -41 -25 -54 -2 -12 -16 -40 -33 -61 -17 -22
-51 -76 -77 -121 -27 -46 -52 -86 -57 -89 -5 -3 -9 -10 -9 -15 0 -6 27 22 60
63 54 65 179 292 167 304 -2 2 -14 -10 -26 -27z"/>
</g>
</svg>
